<svg xmlns="http://www.w3.org/2000/svg" viewBox="0 0 64 64" width="64" height="64" preserveAspectRatio="xMidYMid slice" style="width: 100%; height: 100%; transform: translate3d(0px, 0px, 0px); content-visibility: visible;"><defs><clipPath id="__lottie_element_56"><rect width="64" height="64" x="0" y="0"></rect></clipPath><clipPath id="__lottie_element_58"><path d="M0,0 L64,0 L64,64 L0,64z"></path></clipPath></defs><g clip-path="url(#__lottie_element_56)"><g clip-path="url(#__lottie_element_58)" transform="matrix(0.9999991059303284,0,0,0.9999991059303284,0.0000286102294921875,0.0000286102294921875)" opacity="1" style="display: block;"><g transform="matrix(1,0,0,1,0,0)" opacity="1" style="display: block;"><g opacity="1" transform="matrix(1,0,0,1,32,34.5)"><path fill="rgb(156,219,158)" fill-opacity="1" d=" M-21,-18.5 C-21,-18.5 21,-18.5 21,-18.5 C23.76099967956543,-18.5 26,-16.26099967956543 26,-13.5 C26,-13.5 26,13.5 26,13.5 C26,16.26099967956543 23.76099967956543,18.5 21,18.5 C21,18.5 -21,18.5 -21,18.5 C-23.76099967956543,18.5 -26,16.26099967956543 -26,13.5 C-26,13.5 -26,-13.5 -26,-13.5 C-26,-16.26099967956543 -23.76099967956543,-18.5 -21,-18.5z"></path></g><g opacity="1" transform="matrix(1,0,0,1,32,34.5)"><path stroke-linecap="butt" stroke-linejoin="miter" fill-opacity="0" stroke-miterlimit="4" stroke="rgb(26,24,30)" stroke-opacity="1" stroke-width="2.7" d=" M-21,-18.5 C-21,-18.5 21,-18.5 21,-18.5 C23.76099967956543,-18.5 26,-16.26099967956543 26,-13.5 C26,-13.5 26,13.5 26,13.5 C26,16.26099967956543 23.76099967956543,18.5 21,18.5 C21,18.5 -21,18.5 -21,18.5 C-23.76099967956543,18.5 -26,16.26099967956543 -26,13.5 C-26,13.5 -26,-13.5 -26,-13.5 C-26,-16.26099967956543 -23.76099967956543,-18.5 -21,-18.5z"></path></g><g opacity="1" transform="matrix(1,0,0,1,31.5,16)"><path fill="rgb(255,255,255)" fill-opacity="1" d=" M-6.5,-5 C-6.5,-5 6.5,-5 6.5,-5 C8.156999588012695,-5 9.5,-3.6570000648498535 9.5,-2 C9.5,-2 9.5,2 9.5,2 C9.5,3.6570000648498535 8.156999588012695,5 6.5,5 C6.5,5 -6.5,5 -6.5,5 C-8.156999588012695,5 -9.5,3.6570000648498535 -9.5,2 C-9.5,2 -9.5,-2 -9.5,-2 C-9.5,-3.6570000648498535 -8.156999588012695,-5 -6.5,-5z"></path></g><g opacity="1" transform="matrix(1,0,0,1,31.5,16)"><path stroke-linecap="butt" stroke-linejoin="miter" fill-opacity="0" stroke-miterlimit="4" stroke="rgb(26,24,30)" stroke-opacity="1" stroke-width="2.6" d=" M-6.5,-5 C-6.5,-5 6.5,-5 6.5,-5 C8.156999588012695,-5 9.5,-3.6570000648498535 9.5,-2 C9.5,-2 9.5,2 9.5,2 C9.5,3.6570000648498535 8.156999588012695,5 6.5,5 C6.5,5 -6.5,5 -6.5,5 C-8.156999588012695,5 -9.5,3.6570000648498535 -9.5,2 C-9.5,2 -9.5,-2 -9.5,-2 C-9.5,-3.6570000648498535 -8.156999588012695,-5 -6.5,-5z"></path></g><g opacity="0.9999901571310613" transform="matrix(1,0,0,1,0,0)"><g opacity="1" transform="matrix(1,0,0,1,21.5,30.5)"><path fill="rgb(255,255,255)" fill-opacity="1" d=" M0,-4.25 C2.3469998836517334,-4.25 4.25,-2.3469998836517334 4.25,0 C4.25,2.3469998836517334 2.3469998836517334,4.25 0,4.25 C-2.3469998836517334,4.25 -4.25,2.3469998836517334 -4.25,0 C-4.25,-2.3469998836517334 -2.3469998836517334,-4.25 0,-4.25z"></path></g><g opacity="1" transform="matrix(1,0,0,1,21.5,30.5)"><path stroke-linecap="butt" stroke-linejoin="miter" fill-opacity="0" stroke-miterlimit="4" stroke="rgb(26,24,30)" stroke-opacity="1" stroke-width="2.5" d=" M0,-4.25 C2.3469998836517334,-4.25 4.25,-2.3469998836517334 4.25,0 C4.25,2.3469998836517334 2.3469998836517334,4.25 0,4.25 C-2.3469998836517334,4.25 -4.25,2.3469998836517334 -4.25,0 C-4.25,-2.3469998836517334 -2.3469998836517334,-4.25 0,-4.25z"></path></g><g opacity="1" transform="matrix(1,0,0,1,21.5,42)"><path fill="rgb(255,255,255)" fill-opacity="1" d=" M-7.25,0 C-7.25,-1.5190000534057617 -6.019000053405762,-2.75 -4.5,-2.75 C-4.5,-2.75 4.5,-2.75 4.5,-2.75 C6.019000053405762,-2.75 7.25,-1.5190000534057617 7.25,0 C7.25,0 7.25,2.75 7.25,2.75 C7.25,2.75 -7.25,2.75 -7.25,2.75 C-7.25,2.75 -7.25,0 -7.25,0z"></path></g><g opacity="1" transform="matrix(1,0,0,1,21.5,42)"><path fill="rgb(26,24,30)" fill-opacity="1" d=" M7.500999927520752,4 C7.500999927520752,4 -7.500999927520752,4 -7.500999927520752,4 C-8.053000450134277,4 -8.5,3.552999973297119 -8.5,3.000999927520752 C-8.5,3.000999927520752 -8.5,0 -8.5,0 C-8.5,-2.2090001106262207 -6.709000110626221,-4 -4.5,-4 C-4.5,-4 4.5,-4 4.5,-4 C6.709000110626221,-4 8.5,-2.2090001106262207 8.5,0 C8.5,0 8.5,3.000999927520752 8.5,3.000999927520752 C8.5,3.552999973297119 8.053000450134277,4 7.500999927520752,4z M-6,1.5 C-6,1.5 6,1.5 6,1.5 C6,1.5 6,0 6,0 C6,-0.8270000219345093 5.327000141143799,-1.5 4.5,-1.5 C4.5,-1.5 -4.5,-1.5 -4.5,-1.5 C-5.327000141143799,-1.5 -6,-0.8270000219345093 -6,0 C-6,0 -6,1.5 -6,1.5z"></path></g></g></g><g transform="matrix(1,0,0,1,32,32)" opacity="1" style="display: block;"><g opacity="1" transform="matrix(1,0,0,1,0,0)"><path stroke-linecap="round" stroke-linejoin="round" fill-opacity="0" stroke="rgb(26,24,30)" stroke-opacity="1" stroke-width="2.5" d=" M4.375,12.312000274658203 C4.375,12.312000274658203 18,12.312000274658203 18,12.312000274658203"></path></g></g><g transform="matrix(1,0,0,1,32,16.125)" opacity="1" style="display: block;"><g opacity="1" transform="matrix(1,0,0,1,0,0)"><path stroke-linecap="round" stroke-linejoin="round" fill-opacity="0" stroke="rgb(26,24,30)" stroke-opacity="1" stroke-width="2.5" d=" M4.375,12.312000274658203 C4.375,12.312000274658203 18,12.312000274658203 18,12.312000274658203"></path></g></g><g transform="matrix(1,0,0,1,32,24.125)" opacity="1" style="display: block;"><g opacity="1" transform="matrix(1,0,0,1,0,0)"><path stroke-linecap="round" stroke-linejoin="round" fill-opacity="0" stroke="rgb(26,24,30)" stroke-opacity="1" stroke-width="2.5" d=" M4.375,12.312000274658203 C4.375,12.312000274658203 18,12.312000274658203 18,12.312000274658203"></path></g></g></g></g></svg>