<svg xmlns="http://www.w3.org/2000/svg" viewBox="0 0 64 64" width="64" height="64" preserveAspectRatio="xMidYMid slice" style="width: 100%; height: 100%; transform: translate3d(0px, 0px, 0px); content-visibility: visible;"><defs><clipPath id="__lottie_element_89"><rect width="64" height="64" x="0" y="0"></rect></clipPath><clipPath id="__lottie_element_91"><path d="M0,0 L64,0 L64,64 L0,64z"></path></clipPath><clipPath id="__lottie_element_95"><path d="M0,0 L64,0 L64,64 L0,64z"></path></clipPath></defs><g clip-path="url(#__lottie_element_89)"><g clip-path="url(#__lottie_element_91)" transform="matrix(0.9999996423721313,0,0,0.9999996423721313,0.000011444091796875,0.000011444091796875)" opacity="1" style="display: block;"><g transform="matrix(1,0,0,1,0,0)" opacity="1" style="display: block;"><g opacity="1" transform="matrix(1,0,0,1,31.5,28)"><path fill="rgb(167,217,245)" fill-opacity="1" d=" M-21.5,-18 C-21.5,-18 21.5,-18 21.5,-18 C22.604999542236328,-18 23.5,-17.104999542236328 23.5,-16 C23.5,-16 23.5,16 23.5,16 C23.5,17.104999542236328 22.604999542236328,18 21.5,18 C21.5,18 -21.5,18 -21.5,18 C-22.604999542236328,18 -23.5,17.104999542236328 -23.5,16 C-23.5,16 -23.5,-16 -23.5,-16 C-23.5,-17.104999542236328 -22.604999542236328,-18 -21.5,-18z"></path></g><g opacity="1" transform="matrix(1,0,0,1,31.5,28)"><path fill="rgb(26,24,30)" fill-opacity="1" d=" M21.5,19.25 C21.5,19.25 -21.5,19.25 -21.5,19.25 C-23.29199981689453,19.25 -24.75,17.79199981689453 -24.75,16 C-24.75,16 -24.75,-16 -24.75,-16 C-24.75,-17.79199981689453 -23.29199981689453,-19.25 -21.5,-19.25 C-21.5,-19.25 21.5,-19.25 21.5,-19.25 C23.29199981689453,-19.25 24.75,-17.79199981689453 24.75,-16 C24.75,-16 24.75,16 24.75,16 C24.75,17.79199981689453 23.29199981689453,19.25 21.5,19.25z M-21.5,-16.75 C-21.913999557495117,-16.75 -22.25,-16.413999557495117 -22.25,-16 C-22.25,-16 -22.25,16 -22.25,16 C-22.25,16.413000106811523 -21.913999557495117,16.75 -21.5,16.75 C-21.5,16.75 21.5,16.75 21.5,16.75 C21.913000106811523,16.75 22.25,16.413000106811523 22.25,16 C22.25,16 22.25,-16 22.25,-16 C22.25,-16.413999557495117 21.913000106811523,-16.75 21.5,-16.75 C21.5,-16.75 -21.5,-16.75 -21.5,-16.75z"></path></g><path fill="rgb(26,24,30)" fill-opacity="1" d=" M45.06,54.52 C45.44,55.1 46.22,55.26 46.79,54.88 C47.37,54.49 47.52,53.72 47.14,53.14 C47.14,53.14 45.06,54.52 45.06,54.52z M37.2,46.95 C37.2,46.95 37.61,45.77 37.61,45.77 C37.61,45.77 37.2,46.95 37.2,46.95z M25.95,46.91 C25.95,46.91 25.55,45.72 25.55,45.72 C25.55,45.72 25.95,46.91 25.95,46.91z M15.96,53.02 C15.58,53.6 15.73,54.37 16.3,54.76 C16.88,55.14 17.65,54.99 18.04,54.42 C18.04,54.42 15.96,53.02 15.96,53.02z M47.14,53.14 C44.86,49.7 41.51,47.11 37.61,45.77 C37.61,45.77 36.8,48.13 36.8,48.13 C40.18,49.29 43.08,51.54 45.06,54.52 C45.06,54.52 47.14,53.14 47.14,53.14z M37.61,45.77 C33.7,44.43 29.47,44.41 25.55,45.72 C25.55,45.72 26.35,48.09 26.35,48.09 C29.74,46.96 33.41,46.97 36.8,48.13 C36.8,48.13 37.61,45.77 37.61,45.77z M25.55,45.72 C21.64,47.03 18.27,49.6 15.96,53.02 C15.96,53.02 18.04,54.42 18.04,54.42 C20.04,51.45 22.96,49.23 26.35,48.09 C26.35,48.09 25.55,45.72 25.55,45.72z"></path><g opacity="1" transform="matrix(1,0,0,1,31.551000595092773,49.83399963378906)"><path fill="rgb(26,24,30)" fill-opacity="1" d=" M13.508000373840332,4.690999984741211 C13.888999938964844,5.265999794006348 14.664999961853027,5.423999786376953 15.239999771118164,5.041999816894531 C15.815999984741211,4.660999774932861 15.972999572753906,3.884000062942505 15.592000007629395,3.309000015258789 C15.592000007629395,3.309000015258789 13.508000373840332,4.690999984741211 13.508000373840332,4.690999984741211z M5.6519999504089355,-2.882999897003174 C5.6519999504089355,-2.882999897003174 6.057000160217285,-4.065999984741211 6.057000160217285,-4.065999984741211 C6.057000160217285,-4.065999984741211 5.6519999504089355,-2.882999897003174 5.6519999504089355,-2.882999897003174z M-5.599999904632568,-2.9260001182556152 C-5.599999904632568,-2.9260001182556152 -5.997000217437744,-4.111000061035156 -5.997000217437744,-4.111000061035156 C-5.997000217437744,-4.111000061035156 -5.599999904632568,-2.9260001182556152 -5.599999904632568,-2.9260001182556152z M-15.586999893188477,3.188999891281128 C-15.972999572753906,3.76200008392334 -15.821000099182129,4.539000034332275 -15.24899959564209,4.923999786376953 C-14.675999641418457,5.309999942779541 -13.899999618530273,5.159999847412109 -13.513999938964844,4.586999893188477 C-13.513999938964844,4.586999893188477 -15.586999893188477,3.188999891281128 -15.586999893188477,3.188999891281128z M15.592000007629395,3.309000015258789 C13.312000274658203,-0.13199999928474426 9.960000038146973,-2.7239999771118164 6.057000160217285,-4.065999984741211 C6.057000160217285,-4.065999984741211 5.244999885559082,-1.7020000219345093 5.244999885559082,-1.7020000219345093 C8.628000259399414,-0.5389999747276306 11.531999588012695,1.7089999914169312 13.508000373840332,4.690999984741211 C13.508000373840332,4.690999984741211 15.592000007629395,3.309000015258789 15.592000007629395,3.309000015258789z M6.057000160217285,-4.065999984741211 C2.1530001163482666,-5.4070000648498535 -2.0840001106262207,-5.422999858856201 -5.997000217437744,-4.111000061035156 C-5.997000217437744,-4.111000061035156 -5.202000141143799,-1.7419999837875366 -5.202000141143799,-1.7419999837875366 C-1.8109999895095825,-2.878000020980835 1.8619999885559082,-2.864000082015991 5.244999885559082,-1.7020000219345093 C5.244999885559082,-1.7020000219345093 6.057000160217285,-4.065999984741211 6.057000160217285,-4.065999984741211z M-5.997000217437744,-4.111000061035156 C-9.90999984741211,-2.7990000247955322 -13.281000137329102,-0.23399999737739563 -15.586999893188477,3.188999891281128 C-15.586999893188477,3.188999891281128 -13.513999938964844,4.586999893188477 -13.513999938964844,4.586999893188477 C-11.515000343322754,1.621000051498413 -8.593999862670898,-0.6050000190734863 -5.202000141143799,-1.7419999837875366 C-5.202000141143799,-1.7419999837875366 -5.997000217437744,-4.111000061035156 -5.997000217437744,-4.111000061035156z"></path></g></g><g clip-path="url(#__lottie_element_95)" transform="matrix(1,0,0,1,0,0)" opacity="1" style="display: block;"><g transform="matrix(1.1071399450302124,0,0,1.0965299606323242,32,32)" opacity="1" style="display: block;"><g opacity="1" transform="matrix(1,0,0,1,0,0)"><path stroke-linecap="round" stroke-linejoin="round" fill-opacity="0" stroke="rgb(26,24,30)" stroke-opacity="1" stroke-width="2.5" d=" M-16.375,4.75 C-16.375,4.75 -6.875,-4 -6.875,-4 C-6.875,-4 -1.25,1.125 -1.25,1.125 C-1.25,1.125 4.949999809265137,-5.189000129699707 8.946000099182129,-9.260000228881836"></path></g></g><g transform="matrix(1,0,0,1,29.875,34.125)" opacity="1" style="display: block;"><g opacity="1" transform="matrix(1,0,0,1,0.31200000643730164,-0.18799999356269836)"><path stroke-linecap="round" stroke-linejoin="round" fill-opacity="0" stroke="rgb(26,24,30)" stroke-opacity="1" stroke-width="2.5" d=" M1.875,-14.125 C1.875,-14.125 13.875,-14.125 13.875,-14.125 C13.875,-14.125 13.875,-2.5 13.875,-2.5"></path></g></g></g></g></g></svg>