<svg xmlns="http://www.w3.org/2000/svg" viewBox="0 0 64 64" width="64" height="64" preserveAspectRatio="xMidYMid slice" style="width: 100%; height: 100%; transform: translate3d(0px, 0px, 0px); content-visibility: visible;"><defs><clipPath id="__lottie_element_37"><rect width="64" height="64" x="0" y="0"></rect></clipPath><clipPath id="__lottie_element_39"><path d="M0,0 L64,0 L64,64 L0,64z"></path></clipPath><clipPath id="__lottie_element_43"><path d="M0,0 L512,0 L512,512 L0,512z"></path></clipPath></defs><g clip-path="url(#__lottie_element_37)"><g clip-path="url(#__lottie_element_39)" transform="matrix(1,0,0,1,0,0)" opacity="1" style="display: block;"><g transform="matrix(1,0,0,1,0,0)" opacity="1" style="display: block;"><g opacity="1" transform="matrix(1,0,0,1,32,32.150001525878906)"><path fill="rgb(26,24,30)" fill-opacity="1" d=" M-8.899999618530273,10.949999809265137 C-8.899999618530273,10.949999809265137 21,10.949999809265137 21,10.949999809265137 C21.5,10.949999809265137 21.899999618530273,10.649999618530273 22.100000381469727,10.149999618530273 C22.100000381469727,10.149999618530273 28,-10.350000381469727 28,-10.350000381469727 C28.100000381469727,-10.649999618530273 28,-11.050000190734863 27.799999237060547,-11.350000381469727 C27.600000381469727,-11.649999618530273 27.299999237060547,-11.75 26.899999618530273,-11.75 C26.899999618530273,-11.75 22.100000381469727,-11.75 22.100000381469727,-11.75 C21.5,-11.75 21,-11.25 21,-10.649999618530273 C21,-10.050000190734863 21.5,-9.550000190734863 22.100000381469727,-9.550000190734863 C22.100000381469727,-9.550000190734863 25.399999618530273,-9.550000190734863 25.399999618530273,-9.550000190734863 C25.399999618530273,-9.550000190734863 20.200000762939453,8.75 20.200000762939453,8.75 C20.200000762939453,8.75 -10.699999809265137,8.75 -10.699999809265137,8.75 C-10.699999809265137,8.75 -11.899999618530273,3.75 -11.899999618530273,3.75 C-11.899999618530273,3.75 -11.899999618530273,3.6500000953674316 -11.899999618530273,3.6500000953674316 C-11.899999618530273,3.6500000953674316 -15.100000381469727,-9.449999809265137 -15.100000381469727,-9.449999809265137 C-15.100000381469727,-9.449999809265137 -15.100000381469727,-9.550000190734863 -15.100000381469727,-9.550000190734863 C-15.100000381469727,-9.550000190734863 -10.100000381469727,-9.550000190734863 -10.100000381469727,-9.550000190734863 C-9.5,-9.550000190734863 -9,-10.050000190734863 -9,-10.649999618530273 C-9,-11.25 -9.5,-11.75 -10.100000381469727,-11.75 C-10.100000381469727,-11.75 -15.600000381469727,-11.75 -15.600000381469727,-11.75 C-15.600000381469727,-11.75 -18,-21.049999237060547 -18,-21.049999237060547 C-18.100000381469727,-21.450000762939453 -18.399999618530273,-21.75 -18.799999237060547,-21.850000381469727 C-18.799999237060547,-21.850000381469727 -26.600000381469727,-24.149999618530273 -26.600000381469727,-24.149999618530273 C-26.899999618530273,-24.149999618530273 -27.200000762939453,-24.149999618530273 -27.399999618530273,-24.049999237060547 C-27.700000762939453,-23.850000381469727 -27.899999618530273,-23.649999618530273 -28,-23.350000381469727 C-28.100000381469727,-22.75 -27.799999237060547,-22.149999618530273 -27.200000762939453,-21.950000762939453 C-27.200000762939453,-21.950000762939453 -20,-19.850000381469727 -20,-19.850000381469727 C-20,-19.850000381469727 -17.600000381469727,-10.25 -17.600000381469727,-10.25 C-17.600000381469727,-10.25 -12.600000381469727,10.149999618530273 -12.600000381469727,10.149999618530273 C-12.600000381469727,10.25 -12.600000381469727,10.25 -12.5,10.350000381469727 C-13.399999618530273,11.350000381469727 -13.899999618530273,12.550000190734863 -13.899999618530273,13.850000381469727 C-13.899999618530273,15.149999618530273 -13.300000190734863,16.450000762939453 -12.399999618530273,17.350000381469727 C-11.5,18.25 -10.199999809265137,18.75 -8.899999618530273,18.75 C-8.899999618530273,18.75 -7.199999809265137,18.75 -7.199999809265137,18.75 C-7.699999809265137,19.950000762939453 -7.599999904632568,21.25 -6.900000095367432,22.350000381469727 C-6.199999809265137,23.450000762939453 -5,24.049999237060547 -3.700000047683716,24.049999237060547 C-2.4000000953674316,24.049999237060547 -1.2000000476837158,23.450000762939453 -0.5,22.350000381469727 C0.20000000298023224,21.25 0.30000001192092896,19.950000762939453 -0.20000000298023224,18.75 C-0.20000000298023224,18.75 15,18.75 15,18.75 C14.600000381469727,19.75 14.600000381469727,20.850000381469727 15,21.850000381469727 C15.5,22.850000381469727 16.299999237060547,23.549999237060547 17.399999618530273,23.850000381469727 C18.5,24.149999618530273 19.600000381469727,23.950000762939453 20.5,23.350000381469727 C21.399999618530273,22.75 22,21.75 22.200000762939453,20.75 C22.399999618530273,19.649999618530273 22,18.549999237060547 21.299999237060547,17.75 C20.600000381469727,16.950000762939453 19.5,16.450000762939453 18.5,16.450000762939453 C18.5,16.450000762939453 -8.899999618530273,16.450000762939453 -8.899999618530273,16.450000762939453 C-9.899999618530273,16.450000762939453 -10.699999809265137,15.850000381469727 -11.199999809265137,15.050000190734863 C-11.699999809265137,14.25 -11.699999809265137,13.149999618530273 -11.199999809265137,12.350000381469727 C-10.699999809265137,11.550000190734863 -9.899999618530273,11.050000190734863 -8.899999618530273,10.949999809265137z M-2.200000047683716,20.350000381469727 C-2.200000047683716,20.75 -2.4000000953674316,21.149999618530273 -2.700000047683716,21.450000762939453 C-3,21.75 -3.4000000953674316,21.950000762939453 -3.799999952316284,21.950000762939453 C-4.199999809265137,21.950000762939453 -4.599999904632568,21.75 -4.900000095367432,21.450000762939453 C-5.199999809265137,21.149999618530273 -5.400000095367432,20.75 -5.400000095367432,20.350000381469727 C-5.400000095367432,19.950000762939453 -5.199999809265137,19.549999237060547 -4.900000095367432,19.25 C-4.599999904632568,18.950000762939453 -4.199999809265137,18.75 -3.799999952316284,18.75 C-3.4000000953674316,18.75 -3,18.950000762939453 -2.700000047683716,19.25 C-2.4000000953674316,19.549999237060547 -2.200000047683716,19.950000762939453 -2.200000047683716,20.350000381469727z M18.399999618530273,21.850000381469727 C18,21.850000381469727 17.600000381469727,21.649999618530273 17.299999237060547,21.350000381469727 C17,21.049999237060547 16.799999237060547,20.649999618530273 16.799999237060547,20.25 C16.799999237060547,19.850000381469727 17,19.450000762939453 17.299999237060547,19.149999618530273 C17.600000381469727,18.850000381469727 18,18.649999618530273 18.399999618530273,18.649999618530273 C18.799999237060547,18.649999618530273 19.200000762939453,18.850000381469727 19.5,19.149999618530273 C19.799999237060547,19.450000762939453 20,19.850000381469727 20,20.25 C20,20.649999618530273 19.799999237060547,21.049999237060547 19.5,21.350000381469727 C19.200000762939453,21.75 18.799999237060547,21.850000381469727 18.399999618530273,21.850000381469727z"></path></g><g opacity="1" transform="matrix(1,0,0,1,32,32.150001525878906)"><path stroke-linecap="butt" stroke-linejoin="miter" fill-opacity="0" stroke-miterlimit="10" stroke="rgb(26,24,30)" stroke-opacity="1" stroke-width="0.3" d=" M-8.899999618530273,10.949999809265137 C-8.899999618530273,10.949999809265137 21,10.949999809265137 21,10.949999809265137 C21.5,10.949999809265137 21.899999618530273,10.649999618530273 22.100000381469727,10.149999618530273 C22.100000381469727,10.149999618530273 28,-10.350000381469727 28,-10.350000381469727 C28.100000381469727,-10.649999618530273 28,-11.050000190734863 27.799999237060547,-11.350000381469727 C27.600000381469727,-11.649999618530273 27.299999237060547,-11.75 26.899999618530273,-11.75 C26.899999618530273,-11.75 22.100000381469727,-11.75 22.100000381469727,-11.75 C21.5,-11.75 21,-11.25 21,-10.649999618530273 C21,-10.050000190734863 21.5,-9.550000190734863 22.100000381469727,-9.550000190734863 C22.100000381469727,-9.550000190734863 25.399999618530273,-9.550000190734863 25.399999618530273,-9.550000190734863 C25.399999618530273,-9.550000190734863 20.200000762939453,8.75 20.200000762939453,8.75 C20.200000762939453,8.75 -10.699999809265137,8.75 -10.699999809265137,8.75 C-10.699999809265137,8.75 -11.899999618530273,3.75 -11.899999618530273,3.75 C-11.899999618530273,3.75 -11.899999618530273,3.6500000953674316 -11.899999618530273,3.6500000953674316 C-11.899999618530273,3.6500000953674316 -15.100000381469727,-9.449999809265137 -15.100000381469727,-9.449999809265137 C-15.100000381469727,-9.449999809265137 -15.100000381469727,-9.550000190734863 -15.100000381469727,-9.550000190734863 C-15.100000381469727,-9.550000190734863 -10.100000381469727,-9.550000190734863 -10.100000381469727,-9.550000190734863 C-9.5,-9.550000190734863 -9,-10.050000190734863 -9,-10.649999618530273 C-9,-11.25 -9.5,-11.75 -10.100000381469727,-11.75 C-10.100000381469727,-11.75 -15.600000381469727,-11.75 -15.600000381469727,-11.75 C-15.600000381469727,-11.75 -18,-21.049999237060547 -18,-21.049999237060547 C-18.100000381469727,-21.450000762939453 -18.399999618530273,-21.75 -18.799999237060547,-21.850000381469727 C-18.799999237060547,-21.850000381469727 -26.600000381469727,-24.149999618530273 -26.600000381469727,-24.149999618530273 C-26.899999618530273,-24.149999618530273 -27.200000762939453,-24.149999618530273 -27.399999618530273,-24.049999237060547 C-27.700000762939453,-23.850000381469727 -27.899999618530273,-23.649999618530273 -28,-23.350000381469727 C-28.100000381469727,-22.75 -27.799999237060547,-22.149999618530273 -27.200000762939453,-21.950000762939453 C-27.200000762939453,-21.950000762939453 -20,-19.850000381469727 -20,-19.850000381469727 C-20,-19.850000381469727 -17.600000381469727,-10.25 -17.600000381469727,-10.25 C-17.600000381469727,-10.25 -12.600000381469727,10.149999618530273 -12.600000381469727,10.149999618530273 C-12.600000381469727,10.25 -12.600000381469727,10.25 -12.5,10.350000381469727 C-13.399999618530273,11.350000381469727 -13.899999618530273,12.550000190734863 -13.899999618530273,13.850000381469727 C-13.899999618530273,15.149999618530273 -13.300000190734863,16.450000762939453 -12.399999618530273,17.350000381469727 C-11.5,18.25 -10.199999809265137,18.75 -8.899999618530273,18.75 C-8.899999618530273,18.75 -7.199999809265137,18.75 -7.199999809265137,18.75 C-7.699999809265137,19.950000762939453 -7.599999904632568,21.25 -6.900000095367432,22.350000381469727 C-6.199999809265137,23.450000762939453 -5,24.049999237060547 -3.700000047683716,24.049999237060547 C-2.4000000953674316,24.049999237060547 -1.2000000476837158,23.450000762939453 -0.5,22.350000381469727 C0.20000000298023224,21.25 0.30000001192092896,19.950000762939453 -0.20000000298023224,18.75 C-0.20000000298023224,18.75 15,18.75 15,18.75 C14.600000381469727,19.75 14.600000381469727,20.850000381469727 15,21.850000381469727 C15.5,22.850000381469727 16.299999237060547,23.549999237060547 17.399999618530273,23.850000381469727 C18.5,24.149999618530273 19.600000381469727,23.950000762939453 20.5,23.350000381469727 C21.399999618530273,22.75 22,21.75 22.200000762939453,20.75 C22.399999618530273,19.649999618530273 22,18.549999237060547 21.299999237060547,17.75 C20.600000381469727,16.950000762939453 19.5,16.450000762939453 18.5,16.450000762939453 C18.5,16.450000762939453 -8.899999618530273,16.450000762939453 -8.899999618530273,16.450000762939453 C-9.899999618530273,16.450000762939453 -10.699999809265137,15.850000381469727 -11.199999809265137,15.050000190734863 C-11.699999809265137,14.25 -11.699999809265137,13.149999618530273 -11.199999809265137,12.350000381469727 C-10.699999809265137,11.550000190734863 -9.899999618530273,11.050000190734863 -8.899999618530273,10.949999809265137z M-2.200000047683716,20.350000381469727 C-2.200000047683716,20.75 -2.4000000953674316,21.149999618530273 -2.700000047683716,21.450000762939453 C-3,21.75 -3.4000000953674316,21.950000762939453 -3.799999952316284,21.950000762939453 C-4.199999809265137,21.950000762939453 -4.599999904632568,21.75 -4.900000095367432,21.450000762939453 C-5.199999809265137,21.149999618530273 -5.400000095367432,20.75 -5.400000095367432,20.350000381469727 C-5.400000095367432,19.950000762939453 -5.199999809265137,19.549999237060547 -4.900000095367432,19.25 C-4.599999904632568,18.950000762939453 -4.199999809265137,18.75 -3.799999952316284,18.75 C-3.4000000953674316,18.75 -3,18.950000762939453 -2.700000047683716,19.25 C-2.4000000953674316,19.549999237060547 -2.200000047683716,19.950000762939453 -2.200000047683716,20.350000381469727z M18.399999618530273,21.850000381469727 C18,21.850000381469727 17.600000381469727,21.649999618530273 17.299999237060547,21.350000381469727 C17,21.049999237060547 16.799999237060547,20.649999618530273 16.799999237060547,20.25 C16.799999237060547,19.850000381469727 17,19.450000762939453 17.299999237060547,19.149999618530273 C17.600000381469727,18.850000381469727 18,18.649999618530273 18.399999618530273,18.649999618530273 C18.799999237060547,18.649999618530273 19.200000762939453,18.850000381469727 19.5,19.149999618530273 C19.799999237060547,19.450000762939453 20,19.850000381469727 20,20.25 C20,20.649999618530273 19.799999237060547,21.049999237060547 19.5,21.350000381469727 C19.200000762939453,21.75 18.799999237060547,21.850000381469727 18.399999618530273,21.850000381469727z"></path></g></g><g clip-path="url(#__lottie_element_43)" transform="matrix(0.06800000369548798,0,0,0.06800000369548798,20.966999053955078,5.091999053955078)" opacity="1" style="display: block;"><g transform="matrix(1.5,0,0,1.5,256,257.8599853515625)" opacity="1" style="display: block;"><g opacity="1" transform="matrix(1,0,0,1,0,-3)"><path fill="rgb(156,219,158)" fill-opacity="1" d=" M0,-118 C65.12419891357422,-118 118,-65.12419891357422 118,0 C118,65.12419891357422 65.12419891357422,118 0,118 C-65.12419891357422,118 -118,65.12419891357422 -118,0 C-118,-65.12419891357422 -65.12419891357422,-118 0,-118z"></path></g></g><g transform="matrix(1,0,0,1,256,256)" opacity="1" style="display: block;"><g opacity="1" transform="matrix(1,0,0,1,0,0)"><path stroke-linecap="round" stroke-linejoin="round" fill-opacity="0" stroke="rgb(26,24,30)" stroke-opacity="1" stroke-width="38" d=" M-82.5,4.5 C-82.5,4.5 -31,55 -31,55 C-31,55 73,-52.5 73,-52.5"></path></g></g></g></g></g></svg>