<svg width="203" height="60" viewBox="0 0 203 60" fill="none" xmlns="http://www.w3.org/2000/svg">
<g clip-path="url(#clip0_1150_35446)">
<path d="M108.947 13.4766H123.855V18.8502L117.116 47.9925H123.998V54.9496H108.231V49.1295L114.91 20.4252H109.014V13.4766H108.947ZM188.624 34.4405V34.6005C189.694 34.8852 190.642 35.5099 191.326 36.3804C192.009 37.2509 192.392 38.32 192.415 39.4267L192.516 54.9664H184.093L183.984 37.4979H181.263L181.381 54.9664H172.958L172.655 13.5439H186.19C187.8 13.5461 189.344 14.185 190.485 15.321C191.626 16.4571 192.271 17.9982 192.28 19.6082L192.347 29.7154C192.341 30.8096 191.972 31.8709 191.298 32.7333C190.625 33.5958 189.685 34.2109 188.624 34.4826V34.4405ZM183.84 18.8839H181.137L181.213 31.5178H183.925L183.84 18.8839ZM164.847 13.5439L170.145 55.0001H161.874L161.2 46.2406H157.688L157.082 54.9664H148.912L149.906 46.1732H146.217L147.337 54.9664H139.049L138.392 46.1985H134.88L134.282 54.9664H126.078L130.803 13.5439H142.064L145.433 40.2437H150.546L153.595 13.5439H164.847ZM137.954 40.2352L136.623 20.4758H136.362L135.183 40.1931L137.954 40.2352ZM160.788 40.2352L159.398 20.4842H159.179L157.983 40.2352H160.788ZM82.9627 19.5324V27.7445C82.9535 28.8435 82.582 29.9087 81.9059 30.7751C81.2298 31.6416 80.2868 32.2609 79.2231 32.537V32.697C80.2925 32.9836 81.2397 33.6102 81.9219 34.4823C82.604 35.3544 82.9841 36.4246 83.0048 37.5316V48.8937C83.0093 49.6399 82.8721 50.3801 82.6005 51.0751L74.5401 39.4856V35.6112H71.8196L63.3127 23.4911V13.4597H76.8563C78.4686 13.4619 80.0145 14.1016 81.1569 15.2393C82.2993 16.3769 82.9454 17.9202 82.9543 19.5324H82.9627ZM74.4811 18.8333H71.7522V29.6059H74.4559V18.8333H74.4811ZM106.672 54.9496H98.393L97.736 46.1816H94.2069L93.6005 54.9496H85.3969L90.1556 13.4681H101.408L106.639 54.9496H106.672ZM97.2812 40.1763L95.9757 20.4168H95.7146L94.5017 40.1763H97.2812Z" fill="#999999"/>
<path d="M41.0771 13.4513H54.7891V27.6771H46.2486V18.7997H43.5281L43.6207 49.6601H46.3076V38.4581H45.12V32.5622H54.8481L54.9155 54.9327H41.195C40.3965 54.9338 39.6055 54.7776 38.8672 54.473C38.129 54.1684 37.458 53.7214 36.8926 53.1575C36.3271 52.5936 35.8782 51.9239 35.5716 51.1865C35.265 50.4491 35.1066 49.6586 35.1055 48.86L35.0128 19.5072C35.0084 17.9025 35.6409 16.3617 36.7717 15.223C37.9024 14.0844 39.4388 13.4411 41.0434 13.4344L41.0771 13.4513ZM23.3896 54.9496H31.8459L31.7364 13.4429H23.3138L23.4149 54.9496H23.3896ZM19.6837 19.5072V27.7276C19.6642 28.8251 19.2879 29.8864 18.6116 30.7511C17.9354 31.6157 16.9961 32.2367 15.9356 32.5201V32.6801C17.0028 32.9696 17.9473 33.5972 18.6277 34.4688C19.308 35.3405 19.6874 36.4092 19.7089 37.5147V48.8853C19.7111 49.6801 19.5566 50.4676 19.2542 51.2027C18.9518 51.9379 18.5075 52.6061 17.9466 53.1694C17.3857 53.7326 16.7193 54.1797 15.9855 54.4852C15.2516 54.7906 14.4648 54.9484 13.6699 54.9496H0.0842261L0 13.426H13.5773C15.1887 13.4282 16.7338 14.0682 17.8748 15.2061C19.0159 16.344 19.6601 17.8873 19.6668 19.4987L19.6837 19.5072ZM11.261 35.5775H8.51527V49.5506H11.2442L11.2021 35.5859L11.261 35.5775ZM11.261 18.8081H8.47316V29.589H11.1937V18.8165L11.261 18.8081ZM74.5402 39.4772V49.5843H71.8702L71.8197 34.6365L63.3213 22.4911L63.4392 54.958H77.0164C78.2409 54.9589 79.4366 54.5872 80.4446 53.8921C81.4527 53.197 82.2252 52.2115 82.6596 51.0667L74.5402 39.4856V39.4772Z" fill="#999999"/>
<path d="M202.985 7.724C202.582 7.77371 202.198 7.92709 201.872 8.16919C201.546 8.41128 201.288 8.73382 201.124 9.10532C200.375 10.4369 199.287 11.5466 197.97 12.3218C196.654 13.0969 195.155 13.5099 193.628 13.5188C194.049 12.8281 197.115 12.2554 195.354 9.72859C194.68 8.74315 194.697 8.41466 194.773 8.19568C194.537 8.06961 194.356 7.86002 194.265 7.60777C194.175 7.35552 194.182 7.07868 194.285 6.83121C194.093 6.73639 193.944 6.57223 193.869 6.37203C193.794 6.17183 193.798 5.95057 193.88 5.75312C193.73 5.6851 193.595 5.58734 193.484 5.46575C193.372 5.34415 193.286 5.20123 193.232 5.04562C193.731 4.9584 194.244 4.99664 194.725 5.1569C195.205 5.31715 195.639 5.59439 195.986 5.96368C197.578 7.26919 197.881 8.07776 198.967 8.07776C200.054 8.07776 200.778 6.92386 201.84 6.92386C202.091 6.94158 202.332 7.03011 202.534 7.17919C202.737 7.32827 202.893 7.53179 202.985 7.76612V7.724Z" fill="#999999"/>
</g>
<defs>
<clipPath id="clip0_1150_35446">
<rect width="202.985" height="50" fill="white" transform="translate(0 5)"/>
</clipPath>
</defs>
</svg>
