<svg xmlns="http://www.w3.org/2000/svg" viewBox="0 0 64 64" width="64" height="64" preserveAspectRatio="xMidYMid slice" style="width: 100%; height: 100%; transform: translate3d(0px, 0px, 0px); content-visibility: visible;"><defs><clipPath id="__lottie_element_74"><rect width="64" height="64" x="0" y="0"></rect></clipPath><clipPath id="__lottie_element_76"><path d="M0,0 L64,0 L64,64 L0,64z"></path></clipPath></defs><g clip-path="url(#__lottie_element_74)"><g clip-path="url(#__lottie_element_76)" transform="matrix(1,0,0,1,0,0)" opacity="1" style="display: block;"><g transform="matrix(1,0,0,1,32,32)" opacity="1" style="display: block;"><g opacity="1" transform="matrix(1,0,0,1,0.12800000607967377,-1.88100004196167)"><path fill="rgb(253,226,177)" fill-opacity="1" d=" M16.50349998474121,-18.868999481201172 C16.50349998474121,-18.868999481201172 16.50349998474121,18.868999481201172 16.50349998474121,18.868999481201172 C16.50349998474121,18.868999481201172 -16.50349998474121,18.868999481201172 -16.50349998474121,18.868999481201172 C-16.50349998474121,18.868999481201172 -16.50349998474121,-18.868999481201172 -16.50349998474121,-18.868999481201172 C-16.50349998474121,-18.868999481201172 16.50349998474121,-18.868999481201172 16.50349998474121,-18.868999481201172z"></path><path stroke-linecap="butt" stroke-linejoin="miter" fill-opacity="0" stroke-miterlimit="4" stroke="rgb(26,24,29)" stroke-opacity="1" stroke-width="0" d=" M16.50349998474121,-18.868999481201172 C16.50349998474121,-18.868999481201172 16.50349998474121,18.868999481201172 16.50349998474121,18.868999481201172 C16.50349998474121,18.868999481201172 -16.50349998474121,18.868999481201172 -16.50349998474121,18.868999481201172 C-16.50349998474121,18.868999481201172 -16.50349998474121,-18.868999481201172 -16.50349998474121,-18.868999481201172 C-16.50349998474121,-18.868999481201172 16.50349998474121,-18.868999481201172 16.50349998474121,-18.868999481201172z"></path></g></g><g transform="matrix(1,0,0,1,0,0)" opacity="1" style="display: block;"><g opacity="1" transform="matrix(1,0,0,1,32.5,31.5)"><path fill="rgb(26,24,30)" fill-opacity="1" d=" M-13.611000061035156,-28.5 C-15.743000030517578,-28.5 -17.5,-26.743999481201172 -17.5,-24.61400032043457 C-17.5,-24.61400032043457 -17.5,24.613000869750977 -17.5,24.613000869750977 C-17.5,26.743999481201172 -15.743000030517578,28.5 -13.611000061035156,28.5 C-13.611000061035156,28.5 13.611000061035156,28.5 13.611000061035156,28.5 C15.743000030517578,28.5 17.5,26.743999481201172 17.5,24.613000869750977 C17.5,24.613000869750977 17.5,-24.61400032043457 17.5,-24.61400032043457 C17.5,-26.743999481201172 15.743000030517578,-28.5 13.611000061035156,-28.5 C13.611000061035156,-28.5 -13.611000061035156,-28.5 -13.611000061035156,-28.5z M-13.611000061035156,-25.90999984741211 C-13.611000061035156,-25.90999984741211 13.611000061035156,-25.90999984741211 13.611000061035156,-25.90999984741211 C14.35200023651123,-25.90999984741211 14.906999588012695,-25.354000091552734 14.906999588012695,-24.61400032043457 C14.906999588012695,-24.61400032043457 14.906999588012695,-22.02400016784668 14.906999588012695,-22.02400016784668 C14.906999588012695,-22.02400016784668 -14.906999588012695,-22.02400016784668 -14.906999588012695,-22.02400016784668 C-14.906999588012695,-22.02400016784668 -14.906999588012695,-24.61400032043457 -14.906999588012695,-24.61400032043457 C-14.906999588012695,-25.354000091552734 -14.35099983215332,-25.90999984741211 -13.611000061035156,-25.90999984741211z M-14.906999588012695,-19.43199920654297 C-14.906999588012695,-19.43199920654297 14.906999588012695,-19.43199920654297 14.906999588012695,-19.43199920654297 C14.906999588012695,-19.43199920654297 14.906999588012695,16.84000015258789 14.906999588012695,16.84000015258789 C14.906999588012695,16.84000015258789 -14.906999588012695,16.84000015258789 -14.906999588012695,16.84000015258789 C-14.906999588012695,16.84000015258789 -14.906999588012695,-19.43199920654297 -14.906999588012695,-19.43199920654297z M-14.906000137329102,19.430999755859375 C-14.906000137329102,19.430999755859375 14.907999992370605,19.430999755859375 14.907999992370605,19.430999755859375 C14.907999992370605,19.430999755859375 14.907999992370605,24.613000869750977 14.907999992370605,24.613000869750977 C14.907999992370605,25.35300064086914 14.35200023651123,25.908000946044922 13.612000465393066,25.908000946044922 C13.612000465393066,25.908000946044922 -13.609999656677246,25.908000946044922 -13.609999656677246,25.908000946044922 C-14.35099983215332,25.908000946044922 -14.906000137329102,25.35300064086914 -14.906000137329102,24.613000869750977 C-14.906000137329102,24.613000869750977 -14.906000137329102,19.430999755859375 -14.906000137329102,19.430999755859375z M-4.535999774932861,21.374000549316406 C-5.251999855041504,21.374000549316406 -5.831999778747559,21.95400047302246 -5.831999778747559,22.66900062561035 C-5.831999778747559,23.385000228881836 -5.251999855041504,23.96500015258789 -4.535999774932861,23.96500015258789 C-4.535999774932861,23.96500015258789 4.538000106811523,23.96500015258789 4.538000106811523,23.96500015258789 C5.254000186920166,23.96500015258789 5.834000110626221,23.385000228881836 5.834000110626221,22.66900062561035 C5.834000110626221,21.95400047302246 5.252999782562256,21.374000549316406 4.538000106811523,21.374000549316406 C4.538000106811523,21.374000549316406 -4.535999774932861,21.374000549316406 -4.535999774932861,21.374000549316406z"></path></g></g><g transform="matrix(1,0,0,1,0,0)" opacity="1" style="display: block;"><g opacity="1" transform="matrix(1,0,0,1,32,32)"><path fill="rgb(26,24,30)" fill-opacity="1" d=" M-0.03999999910593033,-11.659000396728516 C-0.2540000081062317,-11.64900016784668 -0.46299999952316284,-11.586000442504883 -0.6480000019073486,-11.47599983215332 C-0.6480000019073486,-11.47599983215332 -9.720999717712402,-6.294000148773193 -9.720999717712402,-6.294000148773193 C-10.121999740600586,-6.064000129699707 -10.369000434875488,-5.639999866485596 -10.369999885559082,-5.182000160217285 C-10.369999885559082,-5.182000160217285 -10.369999885559082,5.182000160217285 -10.369999885559082,5.182000160217285 C-10.369000434875488,5.640999794006348 -10.121999740600586,6.065000057220459 -9.720999717712402,6.295000076293945 C-9.720999717712402,6.295000076293945 -0.6480000019073486,11.47700023651123 -0.6480000019073486,11.47700023651123 C-0.4399999976158142,11.600000381469727 -0.20200000703334808,11.663000106811523 0.03999999910593033,11.659000396728516 C0.2549999952316284,11.64900016784668 0.46399998664855957,11.586999893188477 0.6480000019073486,11.47700023651123 C0.6480000019073486,11.47700023651123 9.722999572753906,6.295000076293945 9.722999572753906,6.295000076293945 C10.12399959564209,6.065000057220459 10.369999885559082,5.640999794006348 10.369999885559082,5.182000160217285 C10.369999885559082,5.182000160217285 10.369999885559082,-5.182000160217285 10.369999885559082,-5.182000160217285 C10.369999885559082,-5.639999866485596 10.12399959564209,-6.064000129699707 9.722999572753906,-6.295000076293945 C9.722999572753906,-6.295000076293945 0.6480000019073486,-11.47700023651123 0.6480000019073486,-11.47700023651123 C0.4399999976158142,-11.600000381469727 0.20200000703334808,-11.663000106811523 -0.03999999910593033,-11.659000396728516z"></path></g><g opacity="1" transform="matrix(1,0,0,1,32,26.81800079345703)"><path fill="rgb(255,255,255)" fill-opacity="1" d=" M0,-3.684000015258789 C0,-3.684000015258789 6.460999965667725,0 6.460999965667725,0 C6.460999965667725,0 0,3.684000015258789 0,3.684000015258789 C0,3.684000015258789 -6.460999965667725,0 -6.460999965667725,0 C-6.460999965667725,0 0,-3.684000015258789 0,-3.684000015258789z"></path></g><g opacity="1" transform="matrix(1,0,0,1,27.46299934387207,34.590999603271484)"><path fill="rgb(255,255,255)" fill-opacity="1" d=" M-3.240000009536743,-5.546000003814697 C-3.240000009536743,-5.546000003814697 3.240000009536743,-1.8420000076293945 3.240000009536743,-1.8420000076293945 C3.240000009536743,-1.8420000076293945 3.240000009536743,5.546000003814697 3.240000009536743,5.546000003814697 C3.240000009536743,5.546000003814697 -3.240000009536743,1.8420000076293945 -3.240000009536743,1.8420000076293945 C-3.240000009536743,1.8420000076293945 -3.240000009536743,-5.546000003814697 -3.240000009536743,-5.546000003814697z"></path></g><g opacity="1" transform="matrix(1,0,0,1,36.5369987487793,34.590999603271484)"><path fill="rgb(255,255,255)" fill-opacity="1" d=" M3.240999937057495,-5.546000003814697 C3.240999937057495,-5.546000003814697 3.240999937057495,1.8420000076293945 3.240999937057495,1.8420000076293945 C3.240999937057495,1.8420000076293945 -3.240000009536743,5.546000003814697 -3.240000009536743,5.546000003814697 C-3.240000009536743,5.546000003814697 -3.240000009536743,-1.8420000076293945 -3.240000009536743,-1.8420000076293945 C-3.240000009536743,-1.8420000076293945 3.240999937057495,-5.546000003814697 3.240999937057495,-5.546000003814697z"></path></g></g></g></g></svg>