<svg width="176" height="60" viewBox="0 0 176 60" fill="none" xmlns="http://www.w3.org/2000/svg">
<path d="M4.47144 45.8471L4.69001 15.6832H9.28018L14.7447 34.6996L15.4004 15.4646H19.3348L19.772 46.0657L14.8539 45.9564L8.73373 26.7214V45.7378L4.47144 45.8471Z" fill="#999999"/>
<path d="M123.16 45.847L123.378 16.1202H127.969L133.433 35.1366L134.089 15.9016L138.023 16.1202L138.46 46.5027L133.542 46.3934L127.422 27.1584V45.9563L123.16 45.847Z" fill="#999999"/>
<path d="M67.3129 15.5738L23.1599 15.3552L23.3785 45.7377H67.5315L67.3129 15.5738ZM27.7501 41.5847L27.5315 19.9454L62.9413 20.164L63.1599 41.3662L27.7501 41.5847Z" fill="#999999"/>
<path d="M71.2474 15.5737L71.0288 45.5191H76.0561L81.7392 26.9399L81.9578 45.9562H86.3294L85.8922 15.7923H81.0835L75.8376 35.2459L75.619 15.7923L71.2474 15.5737Z" fill="#999999"/>
<path d="M99.0069 24.0984C99.0069 24.0984 99.0069 20.3826 97.2583 20.3826C97.2583 20.3826 94.1982 19.7269 94.6353 23.6613C95.0725 27.5957 101.848 31.3116 103.16 35.0274C103.16 35.0274 105.564 42.8963 100.318 44.6449C100.318 44.6449 92.0124 47.9236 90.0452 40.4919V36.776L93.9796 36.9946C93.9796 36.9946 93.3239 40.2733 95.2911 40.7105C97.2583 41.1476 98.7883 41.5848 99.8812 38.3061C100.974 35.0274 93.3239 31.3116 91.7938 28.2514C90.2637 25.1913 89.3894 21.4755 91.1381 18.634C92.8867 15.7924 98.1326 15.1367 100.756 17.1039C103.378 19.0711 102.941 24.0984 102.941 24.0984H99.0069Z" fill="#999999"/>
<path d="M151.138 24.2076C151.138 24.2076 151.138 20.4917 149.389 20.4917C149.389 20.4917 146.329 19.836 146.766 23.7704C147.204 27.7048 153.98 31.4207 155.291 35.1365C155.291 35.1365 157.695 43.0054 152.449 44.754C152.449 44.754 144.143 48.0327 142.176 40.601V36.8852L146.111 37.1038C146.111 37.1038 145.455 40.3824 147.422 40.8196C149.389 41.2568 150.919 41.6939 152.012 38.4152C153.105 35.1365 145.455 31.4207 143.925 28.3606C142.395 25.3005 141.521 21.5846 143.269 18.7431C145.018 15.9016 150.264 15.2458 152.887 17.213C155.51 19.1803 155.072 24.2076 155.072 24.2076H151.138Z" fill="#999999"/>
<path d="M119.991 20.8197V16.4481L107.531 16.2295V45.082H119.772L119.553 40.7104H112.122V32.4044H118.023V28.4699L112.122 28.2514V20.6011L119.991 20.8197Z" fill="#999999"/>
<path d="M172.122 20.4918V16.1202L159.663 15.9016V44.7541H171.903L171.684 40.3825H164.253V32.0765H170.154V28.142L164.253 27.9235V20.2732L172.122 20.4918Z" fill="#999999"/>
</svg>
