<svg width="94" height="60" viewBox="0 0 94 60" fill="none" xmlns="http://www.w3.org/2000/svg">
<path d="M47.0751 25.9355C47.0751 23.2539 47.0508 20.5724 47.0751 17.8909C47.0994 15.1729 49.0044 13.0253 51.2855 13.0738C53.4817 13.1223 55.3381 15.2579 55.3503 17.8909C55.3867 22.6958 55.3503 27.5007 55.3624 32.3057C55.3624 35.4483 56.6486 36.7466 59.7427 36.7466C64.3413 36.7466 68.94 36.7466 73.5386 36.7466C76.208 36.7466 77.6277 35.3148 77.6398 32.6211C77.652 27.8647 77.6398 23.1083 77.6398 18.3519C77.6398 15.2215 79.2779 13.1102 81.6803 13.0738C84.1192 13.0253 85.8907 15.2457 85.8907 18.3762C85.8907 23.4845 85.8907 28.5928 85.8907 33.701C85.8907 36.4796 86.9585 37.6687 89.6521 38.0085C91.909 38.2876 93.6077 40.3381 93.5349 42.6921C93.4621 45.0096 91.6299 46.951 89.458 46.9874C87.2618 47.0238 85.4903 45.3251 85.2112 42.8741C85.1627 42.4251 85.1384 41.9641 85.0535 41.5151C84.738 39.9741 83.379 38.7972 81.8866 38.7122C80.3942 38.6394 78.9138 39.6708 78.477 41.2118C78.3072 41.7821 78.3193 42.413 78.2465 43.0076C77.9674 45.3858 76.2566 46.9631 73.8784 46.9753C68.9764 46.9995 64.0744 46.9874 59.1724 46.9753C56.6364 46.9753 55.0105 45.4707 54.7193 42.9469C54.3674 39.8771 53.6758 39.1369 50.6909 38.6637C48.5918 38.324 47.0872 36.5646 47.0508 34.2713C47.0144 31.4927 47.0508 28.702 47.0508 25.9234L47.0751 25.9355Z" fill="#999999"/>
<path d="M9.1814 21.8224C9.1814 23.1935 9.15713 24.5525 9.1814 25.9236C9.24207 28.0834 10.6253 29.5273 12.7487 29.7093C15.9763 29.9762 16.8499 30.7528 17.4687 33.9075C17.7842 35.5213 19.6164 36.8317 21.4607 36.7468C23.2322 36.674 24.846 35.2665 25.0522 33.6527C25.3677 31.2017 26.9815 29.6486 29.4446 29.4666C32.3324 29.2482 33.3881 28.1198 33.3881 25.232C33.3881 22.8052 33.3759 20.3785 33.3881 17.9518C33.4123 15.0882 35.3173 12.9891 37.8411 13.0134C40.3285 13.0376 42.2578 15.1731 42.282 17.9882C42.3063 20.512 42.3063 23.0479 42.282 25.5717C42.2456 28.4595 40.644 30.134 37.744 30.3766C35.5357 30.5708 34.2496 31.8448 34.0554 34.0531C33.7885 36.9167 32.296 38.4334 29.4568 38.7003C27.2363 38.9066 25.9016 40.2413 25.6711 42.5103C25.3798 45.3132 23.7661 46.9755 21.3029 46.9997C18.7791 47.024 17.0076 45.2768 16.7528 42.4982C16.5344 40.2049 15.2604 38.9187 12.9914 38.7003C10.1764 38.4334 8.78099 37.0137 8.51405 34.1259C8.31991 31.9419 6.91241 30.5586 4.67981 30.3766C1.8648 30.134 0.14182 28.3624 0.0932858 25.5474C0.0447511 23.0236 0.0447511 20.4877 0.0932858 17.9639C0.14182 15.1489 2.26521 12.9406 4.76475 13.0012C7.21575 13.074 9.145 15.2581 9.16927 18.0246C9.16927 19.2865 9.16927 20.5484 9.16927 21.8224H9.1814Z" fill="#999999"/>
</svg>
